<svg height="512pt" viewBox="0 -33 512.00128 512" width="512pt" xmlns="http://www.w3.org/2000/svg"><path d="m480.859375 303.976562c20.605469-45.644531 15.710937-92.398437-10.9375-104.429687-26.652344-12.035156-64.960937 15.214844-85.566406 60.855469-20.609375 45.644531-15.710938 92.398437 10.9375 104.429687 26.648437 12.03125 64.957031-15.214843 85.566406-60.855469zm0 0" fill="#b2e59c"/><path d="m480.878906 303.96875c20.605469-45.644531 15.707032-92.398438-10.941406-104.429688l-74.625 165.289063c26.652344 12.03125 64.960938-15.214844 85.566406-60.859375zm0 0" fill="#9ad880"/><path d="m124.089844 152.027344s-82.574219-23.074219-42.128906-112.386719c40.441406-89.316406 303.199218-13.585937 222.441406 87.628906-60.359375 75.644531-180.3125 24.757813-180.3125 24.757813zm0 0" fill="#97979e"/><path d="m289.445312 142.597656c-102.640624-31.613281-114.230468-115.046875-115.207031-142.476562-41.40625-1.445313-78.9375 10.0625-92.277343 39.523437-40.445313 89.3125 42.128906 112.386719 42.128906 112.386719s102.152344 43.332031 165.355468-9.433594zm0 0" fill="#898890"/><path d="m53.3125 262.082031s-47.183594-99.425781 23.59375-134.8125c57.59375-28.800781 139.742188-6.261719 219.199219-21.390625 52.832031-10.058594 100.773437 33.988282 93.332031 87.253906-3.070312 21.972657-14.308594 45.589844-39.535156 68.949219zm0 0" fill="#acabb1"/><path d="m280.511719 262.082031c-8.558594-24.550781-26.710938-63.460937-57.78125-78.824219-33.582031-16.605468-28.90625-51.875-23.039063-71.625-45.777344-.464843-88.605468-1.457031-122.785156 15.632813-70.777344 35.390625-23.59375 134.816406-23.59375 134.816406zm0 0" fill="#97979e"/><path d="m408.417969 281.390625c6.453125 33.089844-7.601563 82.226563-39.417969 115.035156-31.589844 33.976563-80.945312 51.625-139.832031 48.6875-58.890625-2.941406-113.65625-13.0625-154.003907-23.984375-40.574218-12.089844-66.722656-24.976562-73.628906-60.394531-6.453125-33.09375 7.601563-82.230469 39.417969-115.039063 31.589844-33.976562 80.945313-51.621093 139.832031-48.683593 58.886719 2.9375 113.65625 13.058593 154.003906 23.980469 40.574219 12.089843 66.722657 24.976562 73.628907 60.398437zm0 0" fill="#c6c5ca"/><path d="m305.402344 361.585938c-15.542969 38.453124 11.425781 80.550781 52.808594 83.34375 32.605468 2.199218 73.910156-2.148438 109.066406-28.214844 43.128906-31.972656 47.175781-83.863282 43.800781-119.382813-1.585937-16.671875-20.25-25.835937-34.429687-16.921875-19.027344 11.960938-47.957032 25-86.445313 28.019532-50.84375 3.980468-74.441406 27.523437-84.800781 53.15625zm0 0" fill="#c8efb9"/><path d="m358.210938 444.929688c32.605468 2.199218 73.910156-2.148438 109.066406-28.214844 43.128906-31.972656 47.175781-83.863282 43.800781-119.382813-.851563-8.964843-6.640625-15.757812-14.011719-18.738281-16.261718 26.601562-54.078125 77.390625-112.523437 91.558594-40.0625 9.710937-60.960938 30.941406-71.839844 49.765625 10.1875 13.945312 26.292969 23.714843 45.507813 25.011719zm0 0" fill="#b2e59c"/><path d="m120.558594 321.058594c-20.757813-88.980469 60.226562-124.046875 60.226562-124.046875-58.886718-2.941407-108.238281 14.707031-139.832031 48.683593-31.816406 32.808594-45.871094 81.945313-39.417969 115.039063 6.90625 35.417969 33.058594 48.304687 73.628906 60.394531 38.871094 10.523438 91.136719 20.304688 147.566407 23.632813-32.015625-51.257813-84.597657-48.363281-102.171875-123.703125zm0 0" fill="#acabb1"/></svg>