<svg id="Capa_1" enable-background="new 0 0 512 512" height="512" viewBox="0 0 512 512" width="512" xmlns="http://www.w3.org/2000/svg"><g><g><path d="m458.457 431.793-50.669-131.102c-2.453-6.348-1.428-13.531 2.759-18.897 22.781-29.195 36.484-65.818 36.849-105.633.879-96.136-77.146-175.489-173.285-176.157-96.96-.673-175.772 77.723-175.772 174.528 0 10.056.855 19.913 2.489 29.503.573 3.36-.381 6.796-2.619 9.366l-42.682 49.005c-4.859 5.579-2.872 14.273 3.928 17.188l35.203 15.087c1.968.843 3.033 2.991 2.514 5.068l-4.019 16.076c-1.094 4.377.61 8.978 4.292 11.585l7.024 4.975c1.368.969 1.726 2.802.914 4.27-2.098 3.793-2.864 8.422-1.634 13.275 1.998 7.88 9.302 13.26 17.432 13.253 1.475-.001 2.725 1.083 2.932 2.544l1.233 8.704c.671 4.733.494 9.547-.521 14.218l-3.873 17.818c-1.406 6.469-.239 13.232 3.254 18.856 5.702 9.181 16.575 13.766 27.129 11.441l78.617-17.319c2.63-.579 5.289.848 6.26 3.36l31.905 82.552c2.068 5.35 8.08 8.01 13.43 5.943l170.966-66.076c5.351-2.068 8.011-8.081 5.944-13.431z" fill="#ffcbbe"/></g><g><g><path d="m458.457 431.793-50.669-131.102c-2.449-6.335-1.444-13.513 2.736-18.867 22.795-29.2 36.507-65.834 36.872-105.662.74-80.972-54.495-150.032-129.381-170.206 48.834 31.421 81.147 86.473 80.579 148.528-.317 34.603-10.709 66.796-28.379 93.796-9.121 13.938-10.964 31.416-4.96 46.953l44.4 114.882c2.067 5.35-.593 11.363-5.943 13.43l-145.482 56.227 9.888 25.584c2.068 5.35 8.081 8.01 13.43 5.943l170.966-66.076c5.35-2.067 8.01-8.08 5.943-13.43z" fill="#eaac9d"/></g></g><g><path d="m264.636 127.798c19.849 32.489 14.12 73.468 11.863 85.408-.354 1.873-2.241 3.026-4.069 2.486-11.654-3.441-50.731-17.046-70.58-49.534-13.002-21.282-15.029-46.207-14.246-64.226.412-9.489 36.368-13.815 55.451 1.664 8.076 6.55 15.679 14.541 21.581 24.202z" fill="#f9f6f9"/></g><g><path d="m264.636 127.798c-19.849-32.489-58.927-46.093-70.58-49.534-1.828-.54-3.715.613-4.069 2.486-.779 4.118-1.969 11.694-2.382 21.182 16.459 7.486 38.022 20.712 51.162 42.22 13.002 21.282 15.028 46.206 14.245 64.226 8.403 3.822 15.479 6.151 19.418 7.314 1.828.54 3.715-.613 4.069-2.486 2.257-11.94 7.986-52.919-11.863-85.408z" fill="#dddaec"/></g><g><path d="m221.683 146.454c33.677 17.758 49.721 55.899 53.891 67.312.654 1.79-.378 3.746-2.224 4.218-11.773 3.006-52.309 11.311-85.986-6.448-21.963-11.582-36.427-31.832-44.988-47.684-4.566-8.455 23.797-30.63 47.945-27.214 10.426 1.476 21.206 4.461 31.362 9.816z" fill="#f9f6f9"/></g><g><path d="m275.574 213.767c-4.17-11.413-20.214-49.554-53.891-67.313-33.677-17.758-74.213-9.454-85.986-6.448-1.846.471-2.878 2.428-2.224 4.218 1.45 3.969 4.341 11.174 8.906 19.627 17.875-1.824 42.472-1.229 64.219 10.239 21.965 11.583 36.425 31.833 44.986 47.686 9.806-1.001 17.597-2.727 21.767-3.792 1.845-.471 2.877-2.427 2.223-4.217z" fill="#dddaec"/></g><g><path d="m282.166 127.798c-19.849 32.489-14.12 73.468-11.863 85.408.354 1.873 2.241 3.026 4.069 2.486 11.654-3.441 50.731-17.046 70.58-49.534 5.683-9.302 9.269-19.3 11.44-29.112 5.413-24.461-14.375-55.387-22.556-51.701-16.52 7.443-38.396 20.725-51.67 42.453z" fill="#f9f6f9"/></g><g><path d="m356.815 80.75c-.354-1.873-2.241-3.026-4.069-2.486-3.858 1.139-10.731 3.401-18.908 7.085.703 17.963-1.429 42.523-14.269 63.539-13.278 21.733-35.151 35.006-51.673 42.449.384 9.806 1.609 17.653 2.406 21.869.354 1.873 2.241 3.026 4.069 2.486 11.654-3.441 50.731-17.046 70.58-49.534 19.85-32.489 14.121-73.468 11.864-85.408z" fill="#dddaec"/></g><g><path d="m325.119 146.454c-33.677 17.758-49.721 55.899-53.891 67.312-.654 1.79.378 3.746 2.224 4.218 11.773 3.006 52.309 11.311 85.986-6.448s40.257-74.205 30.934-75.218c-17.951-1.95-43.088-1.552-65.253 10.136z" fill="#f9f6f9"/></g><g><path d="m411.105 140.007c-4.024-1.027-11.411-2.673-20.733-3.686-8.445 16.057-23.117 37.246-45.792 49.203-22.166 11.689-47.302 12.085-65.253 10.134-4.098 7.791-6.737 14.381-8.1 18.109-.654 1.79.378 3.746 2.224 4.218 11.773 3.006 52.309 11.311 85.986-6.448 33.677-17.758 49.721-55.899 53.891-67.312.655-1.79-.376-3.747-2.223-4.218z" fill="#dddaec"/></g><g><path d="m310.189 137.6c0 38.072-26.254 70.055-34.404 79.067-1.278 1.413-3.49 1.413-4.768 0-1.454-1.607 2.368-8.877.014-11.85-1.891-2.389-9.842-.256-12.022-3.414-10.316-14.953-22.396-37.977-22.396-63.803s12.081-48.85 22.397-63.803c4.891-7.09 36.315 7.714 44.644 29.875 3.881 10.332 6.535 21.822 6.535 33.928z" fill="#f9f6f9"/></g><g><path d="m275.785 58.533c-1.278-1.413-3.49-1.413-4.768 0-2.621 2.898-7.115 8.181-12.004 15.266 10.317 14.952 22.4 37.969 22.4 63.8s-12.083 48.848-22.4 63.8c4.889 7.086 9.384 12.369 12.004 15.266 1.278 1.413 3.49 1.413 4.768 0 8.151-9.012 34.404-40.995 34.404-79.067s-26.253-70.053-34.404-79.065z" fill="#dddaec"/></g><g><ellipse cx="312.162" cy="226.555" fill="#6b61b1" rx="55.273" ry="32.541"/></g><g><ellipse cx="256" cy="264.244" fill="#5e54ac" rx="37.367" ry="22"/></g><g><ellipse cx="322.87" cy="337.035" fill="#5e54ac" rx="26.317" ry="15.494"/></g><g><path d="m322.87 321.541c-.233 0-.464.007-.695.01 3.095 2.541 4.924 5.653 4.924 9.018 0 8.42-11.409 15.266-25.621 15.484 4.775 3.92 12.575 6.476 21.393 6.476 14.534 0 26.317-6.937 26.317-15.494-.001-8.557-11.784-15.494-26.318-15.494z" fill="#524798"/></g><g><path d="m312.162 194.014c-4.693 0-9.248.347-13.599.995 23.95 3.568 41.674 16.337 41.674 31.546s-17.724 27.978-41.674 31.546c4.351.648 8.906.995 13.599.995 30.526 0 55.273-14.569 55.273-32.541s-24.747-32.541-55.273-32.541z" fill="#5e54ac"/></g><g><path d="m256 242.244c-4.8 0-9.383.539-13.599 1.509 13.91 3.203 23.768 11.166 23.768 20.49s-9.858 17.288-23.768 20.49c4.216.971 8.799 1.509 13.599 1.509 20.637 0 37.367-9.85 37.367-22 0-12.148-16.73-21.998-37.367-21.998z" fill="#524798"/></g><g><path d="m377.031 308.336h-158.077c-1.864 0-3.375-1.511-3.375-3.375v-24.056c0-1.864 1.511-3.375 3.375-3.375h158.078c1.864 0 3.375 1.511 3.375 3.375v24.056c-.001 1.863-1.512 3.375-3.376 3.375z" fill="#ffc250"/></g><g><path d="m376.984 277.53h-9.916v14.044c0 1.89-1.532 3.423-3.423 3.423h-148.066v9.916c0 1.89 1.532 3.423 3.423 3.423h157.982c1.89 0 3.423-1.532 3.423-3.423v-23.96c0-1.891-1.533-3.423-3.423-3.423z" fill="#e7a52e"/></g><g><path d="m331.425 277.53h15.213v30.806h-15.213z" fill="#dd636e"/></g><g><path d="m247.384 277.53h15.213v30.806h-15.213z" fill="#dd636e"/></g></g></svg>